<svg width="43" height="53" viewBox="0 0 43 53" fill="none" xmlns="http://www.w3.org/2000/svg">
<path d="M21.5 0C14.0217 0 0 5.57895 0 21.386C0 37.193 21.5 53 21.5 53C21.5 53 43 37.193 43 21.386C43 5.57895 28.9783 0 21.5 0Z" fill="#0F5A47"/>
<path d="M8.22601 16.272C8.22601 15.0633 8.59993 13.9475 9.44123 13.1106C10.2825 12.2738 11.3108 11.9019 12.526 11.9019C13.8347 11.9019 14.863 12.2738 15.7043 13.0176L15.1434 13.9475C14.863 13.6685 14.4891 13.4826 14.0217 13.2966C13.5543 13.1106 13.0869 13.0176 12.713 13.0176C11.7782 13.0176 10.9369 13.2966 10.376 13.9475C9.81514 14.5983 9.53471 15.3422 9.53471 16.272C9.53471 17.2019 9.81514 18.0387 10.376 18.6896C10.9369 19.3405 11.7782 19.7124 12.713 19.7124C13.1804 19.7124 13.6478 19.6194 14.1151 19.4334C14.5825 19.2475 14.9564 18.9685 15.3304 18.5966L15.9847 19.4334C15.0499 20.3633 13.9282 20.8282 12.713 20.8282C11.4978 20.8282 10.376 20.3633 9.53471 19.5264C8.59993 18.5966 8.22601 17.4808 8.22601 16.272Z" fill="white"/>
<path d="M17.3868 20.549V11.9946H18.6021V15.7139H23.089V11.9946H24.3042V20.549H23.089V16.8297H18.6021V20.549H17.3868Z" fill="white"/>
<path d="M25.9869 16.1791C25.9869 14.9703 26.3608 13.9475 27.2021 13.1106C28.0434 12.2738 29.0717 11.9019 30.3804 11.9019C31.6891 11.9019 32.7173 12.2738 33.5586 13.1106C34.3999 13.9475 34.7738 14.9703 34.7738 16.1791C34.7738 17.4808 34.3999 18.5036 33.5586 19.3405C32.7173 20.1773 31.6891 20.6422 30.3804 20.6422C29.0717 20.6422 28.0434 20.1773 27.2021 19.3405C26.4543 18.5036 25.9869 17.4808 25.9869 16.1791ZM27.2021 16.1791C27.2021 17.1089 27.4825 17.9457 28.1369 18.5966C28.7912 19.2475 29.5391 19.5264 30.3804 19.5264C31.3151 19.5264 32.063 19.2475 32.6238 18.5966C33.1847 17.9457 33.5586 17.1089 33.5586 16.1791C33.5586 15.2492 33.2782 14.5054 32.6238 13.8545C32.063 13.2036 31.3151 12.9247 30.3804 12.9247C29.4456 12.9247 28.6977 13.2036 28.1369 13.8545C27.576 14.5054 27.2021 15.2492 27.2021 16.1791Z" fill="white"/>
<path d="M8.59991 27.4297C8.59991 26.221 8.97383 25.1052 9.81513 24.2683C10.6564 23.4315 11.6847 23.0596 12.8999 23.0596C14.2086 23.0596 15.2369 23.4315 16.0782 24.1754L15.5173 25.1052C15.2369 24.8262 14.863 24.6403 14.3956 24.4543C13.9282 24.2683 13.4608 24.1754 13.0869 24.1754C12.1521 24.1754 11.3108 24.4543 10.7499 25.1052C10.189 25.7561 9.90861 26.4999 9.90861 27.4297C9.90861 28.3596 10.189 29.1964 10.7499 29.8473C11.3108 30.4982 12.1521 30.8701 13.0869 30.8701C13.5543 30.8701 14.0217 30.7771 14.489 30.5912C14.9564 30.4052 15.3303 30.1262 15.7043 29.7543L16.3586 30.5912C15.4238 31.521 14.3021 31.9859 13.0869 31.9859C11.8717 31.9859 10.7499 31.521 9.90861 30.6841C8.97383 29.7543 8.59991 28.6385 8.59991 27.4297Z" fill="white"/>
<path d="M17.1064 27.4297C17.1064 26.221 17.4804 25.1052 18.3217 24.2683C19.163 23.4315 20.1912 23.0596 21.4064 23.0596C22.7151 23.0596 23.7434 23.4315 24.5847 24.1754L23.9304 25.1052C23.6499 24.8262 23.276 24.6403 22.8086 24.4543C22.3412 24.2683 21.8738 24.1754 21.4999 24.1754C20.5651 24.1754 19.7238 24.4543 19.163 25.1052C18.6021 25.7561 18.3217 26.4999 18.3217 27.4297C18.3217 28.3596 18.6021 29.1964 19.163 29.8473C19.7238 30.4982 20.5651 30.8701 21.4999 30.8701C21.9673 30.8701 22.4347 30.7771 22.9021 30.5912C23.3695 30.4052 23.7434 30.1262 24.1173 29.7543L24.7717 30.5912C23.8369 31.521 22.7151 31.9859 21.4999 31.9859C20.1912 31.9859 19.163 31.521 18.3217 30.6841C17.4804 29.7543 17.1064 28.6385 17.1064 27.4297Z" fill="white"/>
<path d="M25.613 27.3368C25.613 26.128 25.9869 25.1052 26.8282 24.2683C27.6695 23.4315 28.6978 23.0596 30.0065 23.0596C31.3151 23.0596 32.3434 23.4315 33.1847 24.2683C34.026 25.1052 34.3999 26.128 34.3999 27.3368C34.3999 28.6385 34.026 29.6613 33.1847 30.4982C32.3434 31.335 31.3151 31.7999 30.0065 31.7999C28.6978 31.7999 27.6695 31.335 26.8282 30.4982C25.9869 29.6613 25.613 28.6385 25.613 27.3368ZM26.8282 27.3368C26.8282 28.2666 27.1086 29.1034 27.763 29.7543C28.4173 30.4052 29.1651 30.6841 30.0065 30.6841C30.9412 30.6841 31.6891 30.4052 32.2499 29.7543C32.8108 29.1034 33.1847 28.2666 33.1847 27.3368C33.1847 26.4069 32.9043 25.6631 32.2499 25.0122C31.6891 24.3613 30.9412 24.0824 30.0065 24.0824C29.0717 24.0824 28.3238 24.3613 27.763 25.0122C27.1086 25.6631 26.8282 26.4069 26.8282 27.3368Z" fill="white"/>
</svg>
